# xmcd
#
# Track frame offsets: 
#        150
#        32165
#        53250
#        75277
#        112078
#        135016
#        171092
#        216931
#        233664
#        246130
#
# Disc length: 3632 seconds
#
# Revision: 0
# Processed by: cddbd v1.5.2PL0 Copyright (c) Steve Scherf et al.
# Submitted via: ExactAudioCopy v1.0b3
#
DISCID=710e2e0a
DTITLE=Miller Anderson - Bluesheart
DYEAR=1900
DGENRE=Blues
TTITLE0=High Tide and High Water
TTITLE1=Fallin Back into the Blue
TTITLE2=Little Man Dancing
TTITLE3=Help Me
TTITLE4=House of the Rising Sun
TTITLE5=Runnin Blues
TTITLE6=Smokestack Lightnin'_Wang Dang Doodle
TTITLE7=Sending Me Angels
TTITLE8=Houston (Scotland)
TTITLE9=Vigilante Man_Crossroads
EXTD=
EXTT0=
EXTT1=
EXTT2=
EXTT3=
EXTT4=
EXTT5=
EXTT6=
EXTT7=
EXTT8=
EXTT9=
PLAYORDER=
